HIERARCHY
ROOT Hips
{
 OFFSET 0.000000 0.000000 0.000000
 CHANNELS 6 Xposition Yposition Zposition Yrotation Xrotation Zrotation
 JOINT Chest
 {
  OFFSET 0.000000 9.585900 0.002600
  CHANNELS 3 Yrotation Xrotation Zrotation
  JOINT Chest2
  {
   OFFSET 0.000000 9.601200 -0.005300
   CHANNELS 3 Yrotation Xrotation Zrotation
   JOINT Chest3
   {
    OFFSET 0.000000 9.561800 0.000000
    CHANNELS 3 Yrotation Xrotation Zrotation
    JOINT Chest4
    {
     OFFSET 0.000000 9.552100 0.000000
     CHANNELS 3 Yrotation Xrotation Zrotation
     JOINT Neck
     {
      OFFSET 0.000000 14.453000 0.000000
      CHANNELS 3 Yrotation Xrotation Zrotation
      JOINT Head
      {
       OFFSET 0.000000 8.936500 -0.011300
       CHANNELS 3 Yrotation Xrotation Zrotation
       End Site
       {
        OFFSET 0.000000 17.073600 -0.006000
       }
      }
     }
     JOINT RightCollar
     {
      OFFSET -2.921100 9.558500 0.000000
      CHANNELS 3 Yrotation Xrotation Zrotation
      JOINT RightShoulder
      {
       OFFSET -13.519700 0.000000 0.000000
       CHANNELS 3 Yrotation Xrotation Zrotation
       JOINT RightElbow
       {
        OFFSET 0.000000 -29.696600 0.000000
        CHANNELS 3 Yrotation Xrotation Zrotation
        JOINT RightWrist
        {
         OFFSET 0.000000 -24.004700 0.000000
         CHANNELS 3 Yrotation Xrotation Zrotation
         End Site
         {
          OFFSET 0.000000 -17.728500 0.000000
         }
        }
       }
      }
     }
     JOINT LeftCollar
     {
      OFFSET 2.921100 9.558500 0.000000
      CHANNELS 3 Yrotation Xrotation Zrotation
      JOINT LeftShoulder
      {
       OFFSET 13.519700 0.000000 0.000000
       CHANNELS 3 Yrotation Xrotation Zrotation
       JOINT LeftElbow
       {
        OFFSET 0.000000 -29.696600 0.000000
        CHANNELS 3 Yrotation Xrotation Zrotation
        JOINT LeftWrist
        {
         OFFSET 0.000000 -24.004700 0.000000
         CHANNELS 3 Yrotation Xrotation Zrotation
         End Site
         {
          OFFSET 0.000000 -17.728500 0.000000
         }
        }
       }
      }
     }
    }
   }
  }
 }
 JOINT RightHip
 {
  OFFSET -7.771700 -0.012900 -0.001300
  CHANNELS 3 Yrotation Xrotation Zrotation
  JOINT RightKnee
  {
   OFFSET 0.000000 -40.869800 0.001200
   CHANNELS 3 Yrotation Xrotation Zrotation
   JOINT RightAnkle
   {
    OFFSET 0.000000 -39.717900 0.002100
    CHANNELS 3 Yrotation Xrotation Zrotation
    JOINT RightToe
    {
     OFFSET 0.000000 -4.965400 11.033500
     CHANNELS 3 Yrotation Xrotation Zrotation
     End Site
     {
      OFFSET 0.000000 -1.423100 5.872300
     }
    }
   }
  }
 }
 JOINT LeftHip
 {
  OFFSET 7.771700 -0.012900 -0.001300
  CHANNELS 3 Yrotation Xrotation Zrotation
  JOINT LeftKnee
  {
   OFFSET 0.000000 -40.869800 0.001200
   CHANNELS 3 Yrotation Xrotation Zrotation
   JOINT LeftAnkle
   {
    OFFSET 0.000000 -39.717900 0.002100
    CHANNELS 3 Yrotation Xrotation Zrotation
    JOINT LeftToe
    {
     OFFSET 0.000000 -4.965400 11.033500
     CHANNELS 3 Yrotation Xrotation Zrotation
     End Site
     {
      OFFSET 0.000000 -1.423100 5.872300
     }
    }
   }
  }
 }
}
MOTION
Frames: 16
Frame Time: 0.008333
-13.609932 57.818651 35.631941 165.571414 -48.061399 -2.072647 6.168545 21.147251 3.770561 0.870179 2.992658 0.292704 1.279411 4.867473 0.464380 5.410998 18.086835 2.436650 -0.711060 31.211199 1.109397 -1.318067 22.170753 2.037863 3.660363 3.191325 -1.371205 26.062756 -44.115702 -12.749250 157.751699 -47.950655 -157.672193 -5.323169 -3.090442 -34.395321 -4.499263 -0.714812 -0.481395 -69.903886 -15.532727 -2.624738 -10.825486 -46.311232 33.506426 -30.302305 -3.064092 26.629577 18.303003 -26.272403 7.984589 -12.620477 67.265476 -7.915376 3.305351 4.011799 7.827416 -0.128988 0.485879 -0.074256 -7.780129 -26.054745 5.412172 34.586045 67.382449 28.561867 -21.685890 6.125529 -2.402656 -0.425678 -0.824607 -0.213050
-13.600994 57.821211 35.633551 165.537769 -48.059751 -2.080332 6.176332 21.145346 3.788395 0.801112 3.000023 0.275323 1.315694 4.864663 0.471889 5.397351 18.089264 2.433787 -0.696351 31.238185 1.120654 -1.291947 22.217582 2.052524 3.719260 3.191698 -1.387007 26.232107 -44.204975 -12.941259 158.914477 -48.314269 -158.544365 -5.710768 -2.881009 -32.847377 -4.455991 -0.722882 -0.503840 -69.940959 -15.536941 -2.633072 -10.814354 -46.304067 33.518079 -30.304829 -3.080595 26.617571 18.267255 -26.268878 8.003173 -12.563696 67.246722 -7.836646 3.190710 4.048426 7.767956 -0.110769 0.485465 -0.069064 -7.816156 -26.057299 5.415031 34.654347 67.376054 28.662036 -21.635163 6.116791 -2.441106 -0.473671 -0.825716 -0.218415
-13.591045 57.823544 35.635557 165.488795 -48.058353 -2.084657 6.196754 21.142618 3.813940 0.757875 3.005592 0.265412 1.325676 4.864115 0.475038 5.324656 18.101735 2.425643 -0.634038 31.257360 1.116922 -1.269014 22.223228 2.029831 3.835738 3.185827 -1.417254 26.319698 -44.250545 -13.033211 159.774104 -48.495197 -159.155391 -6.047305 -2.557602 -30.998895 -4.356567 -0.739361 -0.536931 -69.950184 -15.537598 -2.635085 -10.815090 -46.305223 33.511192 -30.303790 -3.096428 26.602745 18.221180 -26.265966 8.017378 -12.447781 67.232124 -7.703699 3.156813 4.077970 7.718507 -0.116477 0.481049 -0.073863 -7.828138 -26.056397 5.435263 34.676056 67.377206 28.723365 -21.604777 6.097964 -2.493263 -0.433595 -0.817838 -0.208870
-13.574935 57.826366 35.638934 165.414028 -48.062165 -2.110226 6.221051 21.145947 3.864881 0.784749 3.002268 0.274413 1.295160 4.866346 0.470850 5.290485 18.108182 2.423305 -0.583076 31.266138 1.105140 -1.255590 22.310168 2.088898 3.892714 3.209700 -1.426947 26.499400 -44.363800 -13.222430 160.307618 -48.626265 -159.537136 -6.298033 -2.151945 -28.959442 -4.300300 -0.747609 -0.561228 -69.954838 -15.541049 -2.636169 -10.803828 -46.303812 33.516809 -30.302612 -3.120316 26.582356 18.203970 -26.274910 8.058853 -12.429313 67.205123 -7.602986 3.136719 4.120301 7.618895 -0.073095 0.475529 -0.060547 -7.825655 -26.044483 5.514478 34.636024 67.393643 28.730916 -21.613417 6.075413 -2.542804 -0.410758 -0.810329 -0.200531
-13.568584 57.829058 35.639232 165.384352 -48.068369 -2.111792 6.144022 21.161421 3.829460 0.858913 2.999094 0.292283 1.293896 4.865177 0.470048 5.252352 18.109511 2.420923 -0.553093 31.282316 1.100890 -1.243011 22.400541 2.145646 3.939647 3.229179 -1.433793 26.593964 -44.469530 -13.346560 160.604691 -48.635265 -159.669514 -6.429343 -1.731919 -26.899544 -4.273619 -0.745213 -0.575819 -69.943581 -15.547232 -2.633980 -10.799409 -46.305738 33.513976 -30.303757 -3.143435 26.560967 18.206047 -26.270225 8.069478 -12.426491 67.193571 -7.568231 3.114233 4.139593 7.586393 -0.040326 0.470693 -0.059410 -7.847350 -26.041865 5.506366 34.674745 67.396016 28.808509 -21.582089 6.064745 -2.578012 -0.439006 -0.802333 -0.203346
-13.564980 57.830658 35.639546 165.355101 -48.068876 -2.101781 6.117272 21.162908 3.811086 0.854987 2.999832 0.291714 1.319049 4.865034 0.475428 5.219716 18.107723 2.419724 -0.574248 31.337530 1.131819 -1.214151 22.437938 2.121224 3.978488 3.256655 -1.436596 26.611664 -44.563796 -13.422633 160.749955 -48.529267 -159.592885 -6.430543 -1.381325 -25.019773 -4.242952 -0.738592 -0.587957 -69.924069 -15.552451 -2.630929 -10.818279 -46.313276 33.486898 -30.299825 -3.126773 26.574771 18.197717 -26.266714 8.062891 -12.353006 67.194359 -7.486905 3.132730 4.121237 7.590239 -0.078990 0.488778 -0.077460 -7.899976 -26.050824 5.451779 34.843068 67.373014 29.004459 -21.434770 6.108355 -2.560702 -0.563656 -0.852949 -0.262067
-13.557461 57.831144 35.642009 165.295656 -48.062530 -2.099050 6.124055 21.154043 3.824451 0.851230 2.998406 0.292729 1.316713 4.863961 0.476075 5.218103 18.107938 2.420049 -0.575315 31.378955 1.149091 -1.196724 22.494933 2.124986 4.011609 3.288864 -1.438485 26.579259 -44.668437 -13.495163 160.770811 -48.351858 -159.357207 -6.314888 -1.126805 -23.421923 -4.198876 -0.734020 -0.600331 -69.951642 -15.555069 -2.629618 -10.846505 -46.321437 33.465407 -30.281408 -3.087455 26.605060 18.197231 -26.277616 8.055612 -12.253287 67.184484 -7.329666 3.158135 4.142280 7.549772 -0.113699 0.482056 -0.085353 -7.897585 -26.055649 5.477365 34.814818 67.382048 29.025788 -21.442395 6.087353 -2.624857 -0.520809 -0.843810 -0.247038
-13.553032 57.831285 35.643680 165.218891 -48.056199 -2.067701 6.138603 21.148180 3.821414 0.848531 2.995411 0.292890 1.315206 4.862893 0.476447 5.216618 18.109570 2.421010 -0.567280 31.414571 1.160233 -1.183598 22.561184 2.143278 4.046367 3.323441 -1.440718 26.523890 -44.785436 -13.587323 160.648180 -48.110035 -159.000073 -6.106545 -0.919584 -22.056535 -4.192928 -0.727819 -0.605195 -69.980601 -15.567261 -2.621947 -10.832871 -46.317406 33.462993 -30.299095 -3.126797 26.587377 18.230458 -26.288303 8.051772 -12.223465 67.167015 -7.244312 3.129545 4.186465 7.491344 -0.067571 0.464143 -0.079549 -7.876309 -26.062140 5.486450 34.778766 67.393727 29.036420 -21.466547 6.035897 -2.712183 -0.452270 -0.809656 -0.209912
-13.548282 57.830677 35.645972 165.158559 -48.044635 -2.054075 6.145995 21.138618 3.823428 0.803495 2.996629 0.280449 1.335243 4.859961 0.482989 5.262289 18.107317 2.427300 -0.581847 31.450517 1.177182 -1.170028 22.630983 2.163430 4.060391 3.360531 -1.437842 26.490284 -44.910817 -13.719181 160.364432 -47.815640 -158.558434 -5.842543 -0.707729 -20.832978 -4.209108 -0.725952 -0.604470 -69.956489 -15.574404 -2.621681 -10.840404 -46.313107 33.460653 -30.331365 -3.172245 26.570570 18.238148 -26.302533 8.004784 -12.099349 67.164630 -7.020337 3.150419 4.209353 7.410191 -0.070429 0.456401 -0.084045 -7.888243 -26.075963 5.491136 34.794179 67.398648 29.088308 -21.429261 6.025117 -2.751164 -0.451338 -0.813180 -0.216807
-13.542088 57.830767 35.647864 165.133006 -48.038116 -2.076104 6.133738 21.133147 3.835986 0.824935 2.994858 0.287479 1.333951 4.859633 0.482905 5.259576 18.106552 2.426743 -0.577059 31.468685 1.184203 -1.164601 22.722525 2.208908 4.077640 3.389792 -1.435243 26.509006 -45.028820 -13.886313 159.928453 -47.491302 -158.072848 -5.574320 -0.497213 -19.695177 -4.219669 -0.720271 -0.607374 -69.932832 -15.578613 -2.617599 -10.857214 -46.305616 33.460583 -30.360872 -3.206357 26.561333 18.222176 -26.315477 7.992569 -12.010276 67.164821 -6.861139 3.181751 4.207511 7.358034 -0.098510 0.462735 -0.077453 -7.925955 -26.081399 5.511982 34.850957 67.393956 29.153773 -21.346247 6.057703 -2.729939 -0.521034 -0.844132 -0.251712
-13.540843 57.830887 35.647915 165.113649 -48.032698 -2.072867 6.101386 21.129020 3.815489 0.812725 2.993733 0.284105 1.294740 4.854839 0.475038 5.243258 18.099703 2.429147 -0.497507 31.502674 1.167061 -1.158696 22.818003 2.260555 4.186322 3.418065 -1.456305 26.586251 -45.126662 -14.068684 159.382858 -47.164976 -157.586712 -5.339515 -0.338154 -18.627480 -4.147200 -0.706228 -0.632310 -69.940675 -15.587920 -2.618319 -10.929896 -46.268787 33.472918 -30.331943 -3.194867 26.595771 18.224460 -26.319494 7.971872 -11.976404 67.160020 -6.776744 3.177037 4.222469 7.309260 -0.083480 0.457461 -0.064918 -7.952783 -26.089540 5.494018 34.917097 67.387229 29.229788 -21.276295 6.053974 -2.742619 -0.560318 -0.834632 -0.252682
-13.531807 57.832703 35.648617 165.041242 -48.040157 -2.077483 6.119865 21.128635 3.844864 0.824584 2.994336 0.288576 1.276630 4.850029 0.472061 5.231310 18.097264 2.430278 -0.519632 31.572436 1.203084 -1.129693 22.878194 2.241718 4.246840 3.462630 -1.463067 26.745898 -45.232823 -14.284198 158.794459 -46.856562 -157.141542 -5.141669 -0.247513 -17.646845 -4.116439 -0.699531 -0.650390 -69.979750 -15.609338 -2.625792 -10.954883 -46.221939 33.505598 -30.320603 -3.199566 26.605397 18.227851 -26.324495 7.994737 -11.899875 67.150404 -6.643923 3.199143 4.243513 7.270398 -0.095668 0.449570 -0.072376 -7.963423 -26.081116 5.521553 34.830242 67.420819 29.216564 -21.230594 6.020001 -2.822468 -0.519290 -0.834382 -0.244761
-13.528970 57.834152 35.647429 165.006044 -48.044439 -2.072229 6.098577 21.129717 3.833095 0.848443 2.994944 0.296482 1.246088 4.844979 0.466532 5.218919 18.094566 2.431951 -0.521550 31.629154 1.227533 -1.109214 22.959755 2.253952 4.305880 3.499147 -1.468198 26.853017 -45.286410 -14.404110 158.268229 -46.517009 -156.761129 -4.959114 -0.181811 -16.777663 -4.089194 -0.693018 -0.672712 -69.997188 -15.619114 -2.634316 -10.974132 -46.188665 33.531760 -30.319256 -3.209879 26.603280 18.222375 -26.318183 7.976919 -11.833522 67.146628 -6.524799 3.221439 4.253408 7.228258 -0.099670 0.445955 -0.079886 -7.979601 -26.080455 5.511733 34.835976 67.431801 29.258024 -21.185842 6.010027 -2.858401 -0.512658 -0.836509 -0.246772
-13.529243 57.834163 35.646391 164.972602 -48.036890 -2.051884 6.070302 21.122116 3.802791 0.843736 2.990755 0.297652 1.272378 4.847414 0.472341 5.195913 18.090738 2.430762 -0.502725 31.656931 1.232723 -1.102636 23.072379 2.318784 4.337413 3.535564 -1.463521 26.983154 -45.337719 -14.529424 157.764486 -46.197629 -156.447962 -4.767309 -0.090128 -16.061351 -4.087092 -0.685315 -0.694698 -70.013062 -15.627207 -2.637324 -10.983927 -46.158961 33.553072 -30.316401 -3.217795 26.599034 18.221550 -26.318629 7.944767 -11.785417 67.142486 -6.429890 3.227550 4.259682 7.182155 -0.086671 0.448002 -0.082315 -7.990674 -26.090955 5.495229 34.913891 67.423410 29.333420 -21.142221 6.015425 -2.855852 -0.565386 -0.840243 -0.257015
-13.524383 57.834899 35.646163 164.931716 -48.033692 -2.058572 6.073266 21.115146 3.816573 0.829611 2.989151 0.293203 1.296438 4.847156 0.479187 5.207633 18.091191 2.433390 -0.512288 31.679286 1.246575 -1.095990 23.184184 2.387202 4.339293 3.547639 -1.457969 27.145430 -45.465811 -14.712495 157.188830 -45.981587 -156.132185 -4.556510 0.041828 -15.529985 -4.147777 -0.677584 -0.716577 -69.999787 -15.627101 -2.630484 -10.985767 -46.138027 33.565011 -30.313003 -3.222898 26.594198 18.205621 -26.323627 7.951410 -11.739501 67.133466 -6.339367 3.243788 4.270617 7.137122 -0.085017 0.446106 -0.081281 -8.013573 -26.095922 5.509256 34.905642 67.441855 29.359435 -21.085698 5.997796 -2.896943 -0.555030 -0.837343 -0.254032
-13.518301 57.836953 35.645065 164.871361 -48.040455 -2.058422 6.118472 21.115974 3.856554 0.791519 2.985630 0.282449 1.293425 4.843675 0.479727 5.199096 18.086798 2.435336 -0.504337 31.730390 1.267365 -1.084918 23.274631 2.422579 4.381370 3.570378 -1.463052 27.132370 -45.565577 -14.765855 156.575564 -45.675768 -155.754920 -4.323867 0.193351 -15.151177 -4.126138 -0.661652 -0.740625 -70.014005 -15.632506 -2.630109 -10.982290 -46.124925 33.568336 -30.306679 -3.209423 26.606687 18.197798 -26.319691 7.972813 -11.698299 67.120785 -6.255995 3.251174 4.276861 7.101037 -0.089847 0.444855 -0.078248 -8.053815 -26.087870 5.509217 34.874257 67.468202 29.384407 -20.971592 5.961036 -2.961505 -0.571596 -0.829699 -0.257416
